1.9Hzlow3min_grf.mot
version=1
nRows=30
nColumns 19
inDegrees=yes
endheader
time	1_ground_force_vx	1_ground_force_vy	1_ground_force_vz	1_ground_force_px	1_ground_force_py	1_ground_force_pz	1_ground_torque_x	1_ground_torque_y	1_ground_torque_z	2_ground_force_vx	2_ground_force_vy	2_ground_force_vz	2_ground_force_px	2_ground_force_py	2_ground_force_pz	2_ground_torque_x	2_ground_torque_y	2_ground_torque_z
            2.502500	            0.093525	           -0.723994	            0.684519	           -0.233013	            0.005581	           -0.255695	           -0.649514	            0.075903	           -0.464080	            0.613454	           -1.284831	           -0.567996	           -0.232311	            0.006130	           -0.833667	           -0.432482	            0.121123	            0.057173
            2.503000	           -0.043677	           -1.265211	            0.774254	           -0.233013	            0.005581	           -0.255695	           -0.521784	            0.094516	           -0.507758	            0.424081	           -0.733230	           -0.519017	           -0.232311	            0.006130	           -0.833667	           -0.376048	            0.093170	            0.000497
            2.503500	            0.139986	           -0.364633	            0.961087	           -0.233013	            0.005581	           -0.255695	           -0.661191	            0.066205	           -0.349362	            0.701899	            0.188192	           -0.421995	           -0.232311	            0.006130	           -0.833667	           -0.357135	            0.055495	           -0.018496
            2.504000	            0.002277	           -0.003932	            0.917118	           -0.233013	            0.005581	           -0.255695	           -0.640627	            0.121443	           -0.317457	            0.513108	            0.556314	           -0.561385	           -0.232311	            0.006130	           -0.833667	           -0.356973	            0.017482	            0.037920
            2.504500	           -0.226854	           -1.085374	            0.867193	           -0.233013	            0.005581	           -0.255695	           -0.581778	            0.121509	           -0.364934	            0.426075	           -1.285675	           -0.520988	           -0.232311	            0.006130	           -0.833667	           -0.394621	            0.036319	            0.019153
            2.505000	            0.230566	           -0.542915	            0.501527	           -0.233013	            0.005581	           -0.255695	           -0.566468	            0.047843	           -0.364558	            0.282805	           -0.549087	           -0.659084	           -0.232311	            0.006130	           -0.833667	           -0.375946	            0.064812	            0.000396
            2.505500	            0.185211	           -0.723976	            0.684292	           -0.233013	            0.005581	           -0.255695	           -0.593040	            0.029498	           -0.404115	            0.515623	           -0.179108	           -0.892510	           -0.232311	            0.006130	           -0.833667	           -0.394859	            0.102488	            0.019389
            2.506000	           -0.227474	           -0.183259	            0.687635	           -0.233013	            0.005581	           -0.255695	           -0.611927	            0.047307	           -0.308815	            0.609446	           -0.179773	           -0.610981	           -0.232311	            0.006130	           -0.833667	           -0.357417	            0.140367	            0.038358
            2.506500	           -0.272973	           -1.445324	            0.728194	           -0.233013	            0.005581	           -0.255695	           -0.557186	            0.084997	           -0.479882	            0.565899	           -1.100517	           -0.661175	           -0.232311	            0.006130	           -0.833667	           -0.319590	            0.065016	            0.000372
            2.507000	            0.093735	           -0.003521	            0.825179	           -0.233013	            0.005581	           -0.255695	           -0.618123	            0.131052	           -0.388754	            0.379910	           -1.470160	           -0.474697	           -0.232311	            0.006130	           -0.833667	           -0.357006	            0.017751	           -0.037481
            2.507500	           -0.089244	           -0.905278	            0.913481	           -0.233013	            0.005581	           -0.255695	           -0.565352	            0.177521	           -0.471665	            0.796243	            0.004549	           -0.469620	           -0.232311	            0.006130	           -0.833667	           -0.300642	            0.017887	           -0.018655
            2.508000	           -0.318346	           -0.905519	            0.959906	           -0.233013	            0.005581	           -0.255695	           -0.642128	            0.112215	           -0.368740	            0.471013	           -0.733730	           -0.331324	           -0.232311	            0.006130	           -0.833667	           -0.413329	            0.017279	            0.037944
            2.508500	           -0.227049	           -1.265246	            0.774709	           -0.233013	            0.005581	           -0.255695	           -0.578064	            0.048123	           -0.496838	            0.515849	           -0.180949	           -0.376301	           -0.232311	            0.006130	           -0.833667	           -0.319633	            0.083720	            0.056990
            2.509000	           -0.272811	           -1.085186	            0.821451	           -0.233013	            0.005581	           -0.255695	           -0.523463	            0.112173	           -0.348275	            0.656940	           -0.363585	           -0.658587	           -0.232311	            0.006130	           -0.833667	           -0.338607	            0.140233	            0.094901
            2.509500	            0.001857	           -1.444878	            0.635799	           -0.233013	            0.005581	           -0.255695	           -0.665599	            0.084616	           -0.355097	            0.374470	            0.004031	           -0.751009	           -0.232311	            0.006130	           -0.833667	           -0.338419	            0.083652	            0.056998
            2.510000	           -0.089799	           -0.363695	            0.732376	           -0.233013	            0.005581	           -0.255695	           -0.651779	            0.140605	           -0.490426	            0.564549	           -0.732053	           -0.706789	           -0.232311	            0.006130	           -0.833667	           -0.357094	            0.064342	            0.151190
            2.510500	           -0.089751	           -0.003360	            0.779778	           -0.233013	            0.005581	           -0.255695	           -0.579009	            0.094645	           -0.547211	            0.467649	            0.187346	           -0.421895	           -0.232311	            0.006130	           -0.833667	           -0.319463	            0.036456	            0.056821
            2.511000	           -0.090434	           -0.002180	            0.504643	           -0.233013	            0.005581	           -0.255695	           -0.585777	            0.131124	           -0.434249	            0.515123	            0.003702	           -0.516428	           -0.232311	            0.006130	           -0.833667	           -0.375638	           -0.029446	           -0.075342
            2.511500	           -0.044555	           -1.443904	            0.406633	           -0.233013	            0.005581	           -0.255695	           -0.581213	            0.122383	           -0.545081	            0.280853	            0.003023	           -0.563257	           -0.232311	            0.006130	           -0.833667	           -0.281883	            0.027341	            0.000221
            2.512000	           -0.364841	            0.176853	            0.781234	           -0.233013	            0.005581	           -0.255695	           -0.616372	            0.093947	           -0.427269	            0.470870	           -0.732559	           -0.659821	           -0.232311	            0.006130	           -0.833667	           -0.375973	            0.083382	            0.094714
            2.512500	            0.002996	           -1.446844	            1.094358	           -0.233013	            0.005581	           -0.255695	           -0.591518	            0.048076	           -0.449429	            0.144935	           -1.286355	           -0.614725	           -0.232311	            0.006130	           -0.833667	           -0.338478	            0.093306	            0.000481
            2.513000	            0.047943	           -0.904662	            0.775572	           -0.233013	            0.005581	           -0.255695	           -0.578189	            0.131279	           -0.447169	            0.610131	           -0.364089	           -0.564710	           -0.232311	            0.006130	           -0.833667	           -0.319844	            0.122135	           -0.112527
            2.513500	           -0.227360	           -0.183456	            0.733491	           -0.233013	            0.005581	           -0.255695	           -0.689212	            0.093914	           -0.402414	            0.656358	           -0.180106	           -0.470217	           -0.232311	            0.006130	           -0.833667	           -0.413618	            0.083851	           -0.074921
            2.514000	            0.093604	            0.717542	            0.828271	           -0.233013	            0.005581	           -0.255695	           -0.599901	            0.094244	           -0.426579	            0.656337	           -0.179939	           -0.517145	           -0.232311	            0.006130	           -0.833667	           -0.338214	            0.026936	            0.056796
            2.514500	           -0.044183	           -0.363293	            0.640551	           -0.233013	            0.005581	           -0.255695	           -0.647672	            0.112571	           -0.413410	            0.612269	           -0.917706	           -0.238185	           -0.232311	            0.006130	           -0.833667	           -0.244168	           -0.001218	            0.094355
            2.515000	           -0.089667	           -1.084757	            0.729284	           -0.233013	            0.005581	           -0.255695	           -0.538577	            0.066518	           -0.453403	            0.798880	           -0.731877	           -0.519176	           -0.232311	            0.006130	           -0.833667	           -0.394722	            0.055493	           -0.056180
            2.515500	           -0.181727	           -0.903920	            0.592717	           -0.233013	            0.005581	           -0.255695	           -0.626733	            0.011074	           -0.476136	            0.425369	           -1.101192	           -0.614187	           -0.232311	            0.006130	           -0.833667	           -0.376023	            0.092969	            0.057048
            2.516000	           -0.226923	            0.536624	            0.965862	           -0.233013	            0.005581	           -0.255695	           -0.549503	            0.066622	           -0.496894	            0.515123	            0.003702	           -0.516428	           -0.232311	            0.006130	           -0.833667	           -0.319641	            0.083787	            0.038140
            2.516500	           -0.043240	           -0.545131	            1.006625	           -0.233013	            0.005581	           -0.255695	           -0.644466	            0.075691	           -0.432367	            0.610816	           -0.548405	           -0.518439	           -0.232311	            0.006130	           -0.833667	           -0.394681	            0.055157	            0.038071
            2.517000	            0.048188	           -1.625921	            0.818336	           -0.233013	            0.005581	           -0.255695	           -0.635722	            0.158516	           -0.334096	            0.705784	           -0.915861	           -0.660578	           -0.232311	            0.006130	           -0.833667	           -0.394919	            0.121326	            0.038307
